<svg width="50" height="50" viewBox="0 0 50 50" fill="none" xmlns="http://www.w3.org/2000/svg">
<rect x="0.5" y="0.5" width="49" height="49" rx="4.5" stroke="#FF0000"/>
<rect y="25" width="25" height="25" rx="5" fill="#FF0000"/>
<path d="M8.162 43V33.2H12.95C14.182 33.2 15.106 33.4333 15.722 33.9C16.3473 34.3667 16.66 34.9827 16.66 35.748C16.66 36.2613 16.534 36.7093 16.282 37.092C16.03 37.4653 15.6847 37.7547 15.246 37.96C14.8073 38.1653 14.3033 38.268 13.734 38.268L14 37.694C14.616 37.694 15.162 37.7967 15.638 38.002C16.114 38.198 16.4827 38.492 16.744 38.884C17.0147 39.276 17.15 39.7567 17.15 40.326C17.15 41.166 16.8187 41.824 16.156 42.3C15.4933 42.7667 14.518 43 13.23 43H8.162ZM10.416 41.292H13.062C13.65 41.292 14.0933 41.1987 14.392 41.012C14.7 40.816 14.854 40.508 14.854 40.088C14.854 39.6773 14.7 39.374 14.392 39.178C14.0933 38.9727 13.65 38.87 13.062 38.87H10.248V37.218H12.67C13.2207 37.218 13.6407 37.1247 13.93 36.938C14.2287 36.742 14.378 36.448 14.378 36.056C14.378 35.6733 14.2287 35.3887 13.93 35.202C13.6407 35.006 13.2207 34.908 12.67 34.908H10.416V41.292Z" fill="white"/>
<rect width="25" height="25" rx="5" fill="#FF0000"/>
<path d="M11.162 18V8.2H13.43V18H11.162Z" fill="white"/>
<rect x="25" width="25" height="25" rx="5" fill="#FF0000"/>
<path d="M33.514 18L30.308 8.2H32.66L35.446 16.88H34.27L37.182 8.2H39.282L42.082 16.88H40.948L43.804 8.2H45.974L42.768 18H40.332L37.854 10.384H38.498L35.95 18H33.514Z" fill="white"/>
<rect x="25" y="25" width="25" height="25" rx="5" fill="#FF0000"/>
<path d="M36.968 43.168C36.3053 43.168 35.694 43.0467 35.134 42.804C34.5833 42.552 34.1307 42.1973 33.776 41.74L35.036 40.228C35.3067 40.5827 35.5913 40.8533 35.89 41.04C36.1887 41.2173 36.5107 41.306 36.856 41.306C37.78 41.306 38.242 40.7647 38.242 39.682V35.02H34.798V33.2H40.496V39.556C40.496 40.7693 40.1973 41.6747 39.6 42.272C39.0027 42.8693 38.1253 43.168 36.968 43.168Z" fill="white"/>
</svg>
