<svg width="20" height="20" viewBox="0 0 20 20" fill="none" xmlns="http://www.w3.org/2000/svg">
<path d="M18.1235 1.1875C17.8634 1.19898 17.6211 1.27472 17.4078 1.36094C17.208 1.44131 16.4446 1.76873 15.2422 2.28438C14.0387 2.80047 12.4452 3.48463 10.7453 4.21563C7.3456 5.67763 3.52339 7.32334 1.56565 8.16563C1.49203 8.19729 1.23516 8.27935 0.962524 8.49219C0.689888 8.70503 0.400024 9.14607 0.400024 9.6375C0.400024 10.0338 0.588879 10.4275 0.826587 10.6625C1.0643 10.8975 1.31582 11.0137 1.53127 11.1016C2.31301 11.4205 4.7375 12.4127 5.19534 12.6C5.35646 13.0936 6.23402 15.778 6.43752 16.4359C6.57168 16.8701 6.69938 17.142 6.86565 17.3578C6.94878 17.4657 7.04542 17.5603 7.16252 17.6344C7.20933 17.664 7.26066 17.6868 7.31252 17.7078L7.31565 17.7094C7.3276 17.7142 7.3379 17.7223 7.35002 17.7266C7.37289 17.7346 7.38819 17.7355 7.41878 17.7422C7.54063 17.7815 7.66366 17.8063 7.77346 17.8063C8.24159 17.8063 8.52815 17.5484 8.52815 17.5484L8.54534 17.5359L10.9531 15.4531L13.8735 18.2156C13.9146 18.2738 14.2981 18.8 15.1438 18.8C15.6459 18.8 16.0443 18.548 16.3 18.2797C16.5558 18.0114 16.7151 17.7294 16.7828 17.375V17.3734C16.8462 17.0385 19.5375 3.22188 19.5375 3.22188L19.5328 3.24063C19.6116 2.88102 19.6323 2.54612 19.5453 2.21563C19.4584 1.88514 19.2293 1.56872 18.9453 1.39844C18.6614 1.2282 18.3835 1.17603 18.1235 1.1875ZM17.9735 2.85938C17.9696 2.88273 17.9763 2.87099 17.9703 2.89844L17.9688 2.90782L17.9672 2.91719C17.9672 2.91719 15.3092 16.5571 15.211 17.0766C15.2182 17.0373 15.1853 17.1153 15.1516 17.1625C15.1039 17.1297 15.0063 17.0875 15.0063 17.0875L14.9906 17.0703L11.0016 13.2969L8.18127 15.7344L9.02034 12.375C9.02034 12.375 14.2653 6.94569 14.5813 6.62969C14.8357 6.37689 14.8891 6.28877 14.8891 6.20157C14.8891 6.08477 14.8282 6 14.6922 6C14.5698 6 14.4052 6.119 14.3172 6.175C13.1707 6.90584 8.13748 9.83932 5.88127 11.1516C5.52273 11.0048 3.03176 9.98518 2.18752 9.64063C2.19392 9.63783 2.19181 9.63882 2.19846 9.63594C4.15672 8.79343 7.97733 7.14774 11.3766 5.68594C13.0762 4.95504 14.671 4.27037 15.8735 3.75469C17.0574 3.24695 17.8801 2.89751 17.9735 2.85938Z" fill="black"/>
</svg>
